<svg width="640" height="180" viewBox="0 0 640 180" fill="none" xmlns="http://www.w3.org/2000/svg">
  <rect width="640" height="180" rx="28" fill="transparent"/>
  <circle cx="90" cy="90" r="58" stroke="#D6B98A" stroke-width="1.5"/>
  <circle cx="90" cy="90" r="46" stroke="#8E7349" stroke-width="1" stroke-dasharray="2 5"/>
  <path d="M68 52V128" stroke="#D6B98A" stroke-width="5" stroke-linecap="round"/>
  <path d="M112 52V128" stroke="#D6B98A" stroke-width="5" stroke-linecap="round"/>
  <path d="M68 89H112" stroke="#D6B98A" stroke-width="4.5" stroke-linecap="round"/>
  <path d="M76 52V128" stroke="#6E5735" stroke-width="1.2" stroke-linecap="round" opacity="0.75"/>
  <path d="M104 52V128" stroke="#6E5735" stroke-width="1.2" stroke-linecap="round" opacity="0.75"/>
  <path d="M129 44C137.667 52 142 62 142 74C142 86.667 136.333 98 125 108" stroke="#D6B98A" stroke-width="1.6" stroke-linecap="round"/>
  <path d="M51 44C42.3333 52 38 62 38 74C38 86.667 43.6667 98 55 108" stroke="#D6B98A" stroke-width="1.6" stroke-linecap="round"/>
  <text x="182" y="78" fill="#F6EEDC" font-size="28" font-family="Georgia, 'Times New Roman', serif" letter-spacing="11">HAVEN</text>
  <text x="182" y="121" fill="#D6B98A" font-size="46" font-family="Georgia, 'Times New Roman', serif" letter-spacing="5">DINE</text>
  <line x1="182" y1="138.5" x2="392" y2="138.5" stroke="url(#paint0_linear)" stroke-width="1"/>
  <text x="408" y="144" fill="#BCA37B" font-size="12" font-family="Arial, Helvetica, sans-serif" letter-spacing="4">TACLOBAN CITY</text>
  <defs>
    <linearGradient id="paint0_linear" x1="182" y1="139" x2="392" y2="139" gradientUnits="userSpaceOnUse">
      <stop stop-color="#6E5735" stop-opacity="0"/>
      <stop offset="0.48" stop-color="#D6B98A"/>
      <stop offset="1" stop-color="#6E5735" stop-opacity="0"/>
    </linearGradient>
  </defs>
</svg>
